<?xml version="1.0" encoding="UTF-8" standalone="no"?>
<!-- Created with Inkscape (http://www.inkscape.org/) -->

<svg
   xmlns:dc="http://purl.org/dc/elements/1.1/"
   xmlns:cc="http://creativecommons.org/ns#"
   xmlns:rdf="http://www.w3.org/1999/02/22-rdf-syntax-ns#"
   xmlns:svg="http://www.w3.org/2000/svg"
   xmlns="http://www.w3.org/2000/svg"
   xmlns:sodipodi="http://sodipodi.sourceforge.net/DTD/sodipodi-0.dtd"
   xmlns:inkscape="http://www.inkscape.org/namespaces/inkscape"
   width="210mm"
   height="297mm"
   viewBox="0 0 210 297"
   version="1.1"
   id="svg8"
   inkscape:version="0.92.4 (5da689c313, 2019-01-14)"
   sodipodi:docname="logo svg.svg">
  <defs
     id="defs2" />
  <sodipodi:namedview
     id="base"
     pagecolor="#ffffff"
     bordercolor="#666666"
     borderopacity="1.0"
     inkscape:pageopacity="0.0"
     inkscape:pageshadow="2"
     inkscape:zoom="0.35"
     inkscape:cx="400"
     inkscape:cy="560"
     inkscape:document-units="mm"
     inkscape:current-layer="layer1"
     showgrid="false"
     inkscape:window-width="1366"
     inkscape:window-height="705"
     inkscape:window-x="-8"
     inkscape:window-y="-8"
     inkscape:window-maximized="1" />
  <metadata
     id="metadata5">
    <rdf:RDF>
      <cc:Work
         rdf:about="">
        <dc:format>image/svg+xml</dc:format>
        <dc:type
           rdf:resource="http://purl.org/dc/dcmitype/StillImage" />
        <dc:title></dc:title>
      </cc:Work>
    </rdf:RDF>
  </metadata>
  <g
     inkscape:label="Capa 1"
     inkscape:groupmode="layer"
     id="layer1">
    <flowRoot
       xml:space="preserve"
       id="flowRoot3717"
       style="fill:black;fill-opacity:1;stroke:none;font-family:sans-serif;font-style:normal;font-weight:normal;font-size:40px;line-height:1.25;letter-spacing:0px;word-spacing:0px"><flowRegion
         id="flowRegion3719"><rect
           id="rect3721"
           width="645.71429"
           height="280"
           x="177.14285"
           y="259.66254" /></flowRegion><flowPara
         id="flowPara3723"></flowPara></flowRoot>    <path
       id="path3725"
       d="m 23.562097,157.59854 c 2.954682,1.8796 6.289239,3.0342 9.592597,4.13536 2.75224,0.76814 5.588211,1.23991 8.420309,1.60763 1.966804,0.42913 3.933047,0.83338 5.939657,1.01319 1.623028,0.18476 3.207771,0.55983 4.843799,0.70254 2.017246,0.14113 4.040769,0.15022 6.061972,0.17039 2.545244,0.008 5.090477,0.002 7.63571,0.0116 2.508076,-0.10612 4.870371,-0.98537 7.262561,-1.6538 -1.290804,1.17093 5.569995,-2.7063 3.894305,-1.73483 -11.233589,6.51264 -11.449659,6.65584 -8.056732,4.571 1.569159,-1.03102 3.153648,-2.04085 4.676547,-3.14022 1.444207,-1.15639 2.705145,-2.52977 3.823452,-3.99953 0.989121,-1.3229 1.804738,-2.73808 2.527519,-4.21921 0.586984,-1.35377 1.15507,-2.69499 1.552189,-4.11711 0.762241,-1.67023 1.203362,-3.40656 1.568807,-5.19746 0.41964,-1.99502 1.121989,-3.91307 1.685801,-5.86854 0.368839,-1.8238 1.03361,-3.5619 1.560454,-5.33997 0.351097,-1.66947 0.761135,-3.3285 1.087263,-5.0036 0.40255,-1.57497 0.781931,-3.14138 0.962935,-4.75895 0.379793,-2.00861 0.566618,-4.04321 0.849622,-6.06522 0.417407,-2.10441 0.978929,-4.16568 1.280332,-6.29375 0.255042,-1.99552 0.288949,-4.00836 0.305125,-6.01707 0.01709,-1.81382 -0.0016,-3.62768 0.0054,-5.4415 0.0013,-2.070277 0.0108,-4.140501 0.0026,-6.210781 -0.01215,-1.890218 -0.0054,-3.780425 -0.0118,-5.670674 0.02299,-2.419377 0.03408,-4.838671 0.04099,-7.258161 -0.01127,-2.231613 0.04872,-4.461002 -0.214651,-6.67992 -0.236456,-2.000657 -0.499309,-3.992507 -0.823074,-5.981104 -0.3336,-1.866877 -0.426765,-3.758774 -0.487212,-5.650093 0.02582,-2.115277 0.02633,-4.184528 -0.384696,-6.263256 -0.360048,-2.045417 -1.0009,-4.021696 -1.460468,-6.043385 -0.358026,-1.751909 -0.407046,-3.547745 -0.451199,-5.329714 0.08969,-1.575585 -0.201756,-3.113849 -0.435145,-4.662204 -0.130505,-1.027618 -0.07215,-0.513657 -0.175149,-1.541873 0,0 9.92423,-5.172027 9.92423,-5.172027 v 0 c 0.08324,0.993357 0.03466,0.496496 0.145857,1.49057 0.223959,1.594731 0.600575,3.172764 0.486804,4.794425 0.02048,1.717783 0.04339,3.445703 0.345493,5.14196 0.410041,2.040006 1.051761,4.023264 1.406869,6.07601 0.08521,0.380029 0.455126,1.975009 0.495993,2.373329 0.136848,1.333833 -0.097,2.706372 0.0315,4.043516 0.03828,1.849445 0.116996,3.700798 0.398584,5.531977 0.308183,2.002419 0.656763,3.993546 0.845213,6.012441 0.29153,2.274282 0.26445,4.541079 0.21583,6.832997 0.007,2.405592 0.0179,4.810982 0.0409,7.21646 -0.006,1.894054 1.7e-4,3.788064 -0.0112,5.682091 -0.007,2.067166 0.003,4.134255 0.012,6.201397 0.0135,1.816687 0.0104,3.633634 0.008,5.450319 -0.0269,2.05403 -0.0604,4.11313 -0.28171,6.15705 -0.26723,2.13926 -0.713947,4.2289 -1.245836,6.31562 -0.380158,1.98026 -0.3912,4.01729 -0.86138,5.98585 -0.131146,1.64544 -0.360056,3.26923 -0.907121,4.83645 -0.289994,1.71859 -0.786768,3.38698 -1.068229,5.10692 -0.466447,1.80407 -1.20813,3.517 -1.573845,5.34888 -0.527545,1.95131 -1.234673,3.84911 -1.702943,5.81659 -0.444796,1.76605 -0.519306,3.64964 -1.510929,5.24176 -0.221285,0.73733 -0.325605,1.49883 -0.606002,2.21651 -0.886553,2.26914 0.340897,-1.0074 -0.612294,1.26317 -0.107047,0.255 -0.17586,0.52441 -0.263789,0.78661 -0.665395,1.55023 -1.435664,3.03964 -2.44724,4.39549 -1.013219,1.62477 -2.361234,3.01005 -3.740578,4.32572 -1.429764,1.23898 -3.07307,2.12818 -4.586513,3.25005 -4.839102,2.94437 -9.600207,6.35502 -15.082001,7.98249 -2.416196,0.68868 -4.853191,1.39313 -7.391955,1.37044 -2.558669,0.0132 -5.117397,0.0174 -7.676092,0.008 -2.053855,-0.005 -4.109416,-0.0294 -6.155571,-0.2293 -1.636149,-0.17923 -3.235616,-0.56046 -4.876676,-0.69663 -1.975066,-0.26283 -3.905294,-0.73976 -5.862663,-1.10333 -2.864631,-0.41895 -5.739866,-0.89326 -8.490172,-1.82279 -3.373784,-1.2146 -6.749813,-2.46538 -9.873733,-4.24852 0,0 9.391682,-6.0524 9.391682,-6.0524 z"
       inkscape:connector-curvature="0"
       style="stroke-width:0.26458332" />
    <path
       id="path3727"
       d="m 61.014932,36.375612 c 2.195904,-0.581403 4.444637,-0.860184 6.702555,-1.051758 1.948852,0.09186 3.676935,-0.813046 5.517552,-1.2817 0.282921,-0.04246 0.574516,-0.04593 0.84877,-0.127381 0.573966,-0.170461 1.084265,-0.513152 1.648722,-0.712859 0.957971,-0.338934 1.969603,-0.538988 2.944611,-0.823743 1.833973,-0.323776 3.584789,-0.972545 5.400543,-1.347997 1.746448,-0.535225 3.511666,-1.02426 5.293164,-1.43774 1.098415,-0.33215 2.269455,-0.232646 3.38541,-0.414751 0.44392,-0.07244 0.866304,-0.242482 1.300665,-0.35928 0.875906,-0.225613 1.776857,-0.303152 2.675437,-0.371464 0,0 -8.996299,6.679845 -8.996299,6.679845 v 0 c -0.873381,0.116276 -1.740259,0.265012 -2.593882,0.487519 -1.535885,0.308562 -3.123803,0.311726 -4.637677,0.753909 -1.775079,0.465687 -3.54461,0.951182 -5.311294,1.446937 -1.768044,0.497943 -3.564924,0.857583 -5.333121,1.355476 -1.847266,0.526881 -3.623075,1.251231 -5.494044,1.689362 -1.831639,0.551609 -3.643992,1.104387 -5.58501,1.084927 -2.249437,0.230899 -4.487045,0.586581 -6.649067,1.270153 0,0 8.882965,-6.839455 8.882965,-6.839455 z"
       inkscape:connector-curvature="0"
       style="stroke-width:0.26458332" />
    <path
       id="path3729"
       d="m 141.06814,24.456071 c -0.0804,2.299363 -0.054,4.600656 -0.0384,6.900864 0.0135,1.915792 0.0173,3.831756 0.008,5.747583 -0.0192,2.009058 -0.002,4.018232 0.008,6.027298 -0.004,1.869017 -0.005,3.738028 -0.006,5.607042 0.005,1.870787 -0.002,3.741505 0.004,5.612297 -0.0151,1.861989 0.008,3.723986 -0.002,5.585968 -0.002,2.23747 -0.0274,4.474816 -0.029,6.712267 0.0115,2.132751 0.0303,4.265234 0.0172,6.398001 -0.002,1.906384 0.0121,3.812736 0.0196,5.719095 -0.16804,2.164292 0.19406,4.252865 0.59143,6.370156 0.45253,2.408272 0.70998,4.841298 0.83927,7.286043 0.40313,2.222701 0.96775,4.415967 1.45455,6.62301 0.6405,3.774925 1.01723,7.585625 1.75257,11.344105 0.63656,3.17876 1.46499,6.27766 2.54681,9.32948 0.6589,2.08352 1.51403,4.07069 2.0195,6.20011 0.45394,1.91962 1.23109,3.71991 2.00601,5.52458 0.90991,1.74187 1.6349,3.56942 2.46396,5.349 0.70701,1.65598 1.37595,3.3164 2.27492,4.87977 0.75117,1.46729 1.61055,2.85599 2.53851,4.21436 0.69763,1.23439 1.69502,2.22811 2.58047,3.31983 1.12362,0.98853 1.64612,2.40889 2.45555,3.6288 0.54861,0.69997 0.27517,0.33466 0.81766,1.0979 0,0 -9.64732,5.69548 -9.64732,5.69548 v 0 c -0.54036,-0.75112 -0.25812,-0.37055 -0.84837,-1.14049 -0.76023,-1.20218 -1.30345,-2.54847 -2.37427,-3.5278 -0.92545,-1.10666 -1.9258,-2.14198 -2.6518,-3.40178 -0.9232,-1.38829 -1.7426,-2.82688 -2.52558,-4.2989 -0.95292,-1.57413 -1.6019,-3.287 -2.33588,-4.97002 -0.8345,-1.78779 -1.51727,-3.64454 -2.45127,-5.38607 -0.82999,-1.85704 -1.64381,-3.72074 -2.0918,-5.71467 -0.46798,-2.10462 -1.36625,-4.03759 -1.95307,-6.10789 -1.02117,-3.13783 -1.85113,-6.29513 -2.43763,-9.54856 -0.77978,-3.71916 -1.19872,-7.49992 -1.91692,-11.232 -0.50964,-2.26385 -1.06162,-4.517111 -1.57117,-6.780909 -0.0875,-2.403036 -0.27326,-4.804691 -0.7153,-7.171831 -0.41554,-2.163696 -0.97886,-4.283847 -0.77791,-6.508321 0.008,-1.913017 0.0213,-3.826026 0.0196,-5.739066 -0.0132,-2.138614 0.006,-4.276947 0.0172,-6.415548 -0.002,-2.227588 -0.0271,-4.45507 -0.029,-6.682676 -0.0102,-1.861275 0.0131,-3.722566 -0.002,-5.583849 0.006,-1.872239 -5.3e-4,-3.744405 0.004,-5.616636 -0.001,-1.867059 -0.002,-3.734115 -0.006,-5.601176 0.01,-2.011831 0.0273,-4.023773 0.008,-6.035596 -0.01,-1.918504 -0.005,-3.837146 0.008,-5.755618 0.0154,-2.287149 0.0428,-4.575456 -0.0384,-6.861731 0,0 9.99342,-5.091902 9.99342,-5.091902 z"
       inkscape:connector-curvature="0"
       style="stroke-width:0.26458332" />
    <path
       id="path3731"
       d="m 104.15192,99.269879 c 2.33098,-0.419996 4.57708,-1.169884 6.89174,-1.66393 1.81589,-0.272838 3.58986,-0.765789 5.33072,-1.338278 1.54695,-0.595421 3.10644,-0.974016 4.75334,-1.184939 1.47026,-0.182885 2.8734,-0.640895 4.3549,-0.811848 1.09535,-0.197569 2.26245,0.0609 3.35312,-0.120967 0.61167,-0.101997 1.18404,-0.369126 1.77716,-0.550106 2.06098,-0.505 3.96203,-1.397865 6.03583,-1.879833 2.22947,-0.533611 4.18767,-1.686509 6.25333,-2.622931 0.81796,-0.483036 1.81217,-0.474615 2.68075,-0.776562 0.77969,-0.271042 1.52992,-0.742527 2.30864,-1.042861 -2.94717,1.672365 -5.8923,3.348321 -8.84151,5.017098 -0.25567,0.144672 0.50526,-0.299937 0.76086,-0.444738 3.47076,-1.966227 6.89869,-4.01066 10.41817,-5.888299 2.94144,-1.569252 -11.53608,6.688219 -8.68343,4.962816 0.7102,-0.429559 24.34338,-14.025613 1.75193,-1.024541 19.50555,-11.272023 8.6131,-4.971666 1.66373,-0.975892 -0.30269,0.174043 0.60512,-0.348665 0.90334,-0.530262 0.85627,-0.521428 1.62487,-1.107215 2.39785,-1.743178 1.54255,-1.315678 2.99636,-2.725574 4.47004,-4.116274 1.23767,-1.269338 2.62602,-2.380938 3.47055,-3.963112 0.58937,-1.281459 1.2076,-2.54073 1.68782,-3.868076 0.47768,-1.116745 0.9874,-2.219131 1.49753,-3.321274 0,0 10.15051,-4.640837 10.15051,-4.640837 v 0 c -0.48266,1.095685 -1.00737,2.170007 -1.492,3.264786 -0.57013,1.292627 -0.91115,2.681732 -1.67,3.898612 -0.66052,1.845074 -1.94118,3.063645 -3.35547,4.373732 -1.40899,1.464574 -2.9342,2.812333 -4.43255,4.182062 -0.74395,0.676235 -1.48824,1.379339 -2.32953,1.936774 -6.04793,4.007331 -21.25407,11.93056 -2.5713,1.482894 -3.4641,2.015276 -6.9577,3.98068 -10.3923,6.04583 -2.85369,1.715854 11.56466,-6.606707 8.64933,-4.997823 -3.5125,1.938443 -6.89361,4.113048 -10.44112,5.986658 -2.97648,1.572019 5.81476,-3.392808 8.72678,-5.081233 0.25481,-0.147741 -0.50334,0.306062 -0.755,0.459094 -3.45568,1.966077 -6.91136,3.932156 -10.36704,5.898235 -1.61883,0.689105 -3.30653,1.134975 -4.91877,1.837275 -2.0533,0.988208 -4.12653,1.935265 -6.35959,2.452936 -2.03293,0.601345 -3.98511,1.443897 -6.05958,1.909363 -1.73521,0.41788 -3.49307,0.36561 -5.25604,0.59685 -1.44308,0.25637 -2.85423,0.67297 -4.31992,0.79988 -1.60079,0.29724 -3.11471,0.83799 -4.66398,1.32769 -1.75106,0.52722 -3.54981,0.88391 -5.34409,1.22944 -2.3377,0.54943 -4.640244,1.25119 -7.013123,1.64563 0,0 8.978373,-6.719861 8.978373,-6.719861 z"
       inkscape:connector-curvature="0"
       style="stroke-width:0.26458332" />
  </g>
</svg>
